<?xml version="1.0" encoding="UTF-8" standalone="no"?><!-- Generator: Gravit.io --><svg xmlns="http://www.w3.org/2000/svg" xmlns:xlink="http://www.w3.org/1999/xlink" style="isolation:isolate" viewBox="0 0 89.8 89.8" width="89.8pt" height="89.8pt"><defs><clipPath id="_clipPath_ykjzRmds0UPKkXKXBxkWKPH0l0HofCty"><rect width="89.8" height="89.8"/></clipPath></defs><g clip-path="url(#_clipPath_ykjzRmds0UPKkXKXBxkWKPH0l0HofCty)"><g><g><path d=" M 58.255 23.88 L 31.503 23.88 C 27.233 23.88 23.759 27.354 23.759 31.624 L 23.759 58.376 C 23.759 62.646 27.233 66.121 31.503 66.121 L 58.255 66.121 C 62.525 66.121 66 62.647 66 58.376 L 66 31.624 C 66 27.354 62.526 23.88 58.255 23.88 Z  M 44.879 58.906 C 37.212 58.906 30.974 52.668 30.974 45 C 30.974 37.333 37.212 31.095 44.879 31.095 C 52.547 31.095 58.785 37.333 58.785 45 C 58.785 52.667 52.546 58.906 44.879 58.906 Z  M 59.232 33.97 C 57.417 33.97 55.941 32.494 55.941 30.68 C 55.941 28.866 57.417 27.39 59.232 27.39 C 61.046 27.39 62.522 28.866 62.522 30.68 C 62.522 32.494 61.046 33.97 59.232 33.97 Z " fill="rgb(243,48,95)"/><path d=" M 44.879 36.971 C 40.453 36.971 36.849 40.573 36.849 44.999 C 36.849 49.427 40.453 53.03 44.879 53.03 C 49.307 53.03 52.908 49.427 52.908 44.999 C 52.908 40.574 49.306 36.971 44.879 36.971 Z " fill="rgb(243,48,95)"/><path d=" M 44.879 0 C 20.094 0 0 20.094 0 44.879 C 0 69.664 20.094 89.758 44.879 89.758 C 69.664 89.758 89.758 69.664 89.758 44.879 C 89.758 20.094 69.664 0 44.879 0 Z  M 71.875 58.376 C 71.875 65.887 65.766 71.996 58.255 71.996 L 31.503 71.996 C 23.993 71.996 17.883 65.887 17.883 58.376 L 17.883 31.624 C 17.883 24.114 23.993 18.004 31.503 18.004 L 58.255 18.004 C 65.766 18.004 71.875 24.114 71.875 31.624 L 71.875 58.376 Z " fill="rgb(243,48,95)"/></g></g></g></svg>